<?xml version="1.0" standalone="no"?><!DOCTYPE svg PUBLIC "-//W3C//DTD SVG 1.1//EN" "http://www.w3.org/Graphics/SVG/1.1/DTD/svg11.dtd"><svg t="1610525067510" class="icon" viewBox="0 0 1024 1024" version="1.1" xmlns="http://www.w3.org/2000/svg" p-id="1479" width="32" height="32" xmlns:xlink="http://www.w3.org/1999/xlink"><defs><style type="text/css"></style></defs><path d="M501.333333 801.386667c229.76 0 416-14.336 416-32 0-17.685333-186.24-9.664-416-9.664-60.117333 0-123.029333-2.112-161.386666 0-21.674667 10.688-34.474667 25.514667-59.733334 24.085333-24.234667-1.365333-45.952-34.56-65.173333-38.186667-19.413333-3.712-51.797333 4.906667-69.610667 7.189334-38.144 4.821333-60.096 10.496-60.096 16.576 0 17.664 186.24 32 416 32z" fill="#D8D8D8" p-id="1480"></path><path d="M311.594667 400.341333c-46.506667 12.864-75.178667 24.021333-86.016 33.450667-77.056 66.858667-77.994667 121.92-65.130667 140.906667 15.573333 23.018667 58.410667 43.285333 128.448 60.8 14.762667 13.866667 20.181333 28.48 16.277333 43.904-5.866667 23.104-5.013333 76.757333 19.690667 80.597333 16.469333 2.56 34.133333 2.218667 53.056-1.002667l30.72 5.824 142.08 11.2h64.042667l85.184-16 70.442666-18.730666 17.216-7.296 29.632 13.546666c22.4-3.328 39.402667-18.346667 50.944-45.013333 11.562667-26.709333 13.952-56.533333 7.210667-89.429333l-18.24-12.437334-17.984-61.653333 17.984-19.52 5.013333-13.312-9.066666-43.733333-13.930667-7.445334-42.88 23.893334c-13.76-12.224-27.605333-21.845333-41.557333-28.842667-13.952-7.018667-36.437333-15.616-67.456-25.856l-113.493334-11.84-94.954666 7.402667-20.864-7.402667-11.136-46.933333-25.28-33.493334-8.213334-21.162666-13.098666-81.962667-5.397334-21.312-16.917333-6.464-33.066667 27.776c-8.874667 12.757333-15.530667 29.44-19.989333 50.069333-4.458667 20.629333-8.448 53.290667-11.946667 97.984l-1.322666 23.466667z" fill="#4C4C4C" p-id="1481"></path><path d="M176.533333 525.781333a5.333333 5.333333 0 0 1 7.530667 0.042667c8.021333 8.085333 16.256 11.968 24.896 11.968 8.853333 0 18.517333-4.053333 29.056-12.394667a5.333333 5.333333 0 1 1 6.613333 8.341334c-12.266667 9.749333-24.149333 14.72-35.669333 14.72-11.690667 0-22.570667-5.12-32.469333-15.146667a5.333333 5.333333 0 0 1 0.042666-7.530667zM379.456 195.690667c17.024 0 23.637333 9.770667 29.056 35.669333l2.410667 12.522667 1.109333 6.528c0.490667 3.136 0.874667 6.186667 1.258667 9.621333l1.109333 12.074667c1.536 18.24 2.858667 27.456 6.976 43.733333 0.661333 2.581333 2.218667 5.76 5.056 10.24l11.626667 17.450667c1.28 1.92 2.389333 3.626667 3.114666 4.8 6.442667 10.304 11.349333 19.989333 14.997334 30.442666 4.906667 13.952 9.024 39.104 12.501333 75.733334a5.333333 5.333333 0 1 1-10.624 1.002666l-1.386667-13.717333c-3.093333-28.416-6.613333-48.32-10.538666-59.498667a131.178667 131.178667 0 0 0-10.538667-22.570666l-3.456-5.738667a1007.573333 1007.573333 0 0 0-12.757333-19.157333c-4.629333-7.04-7.168-11.754667-8.32-16.362667a223.146667 223.146667 0 0 1-6.677334-38.762667l-1.322666-14.933333a202.709333 202.709333 0 0 0-2.048-15.744l-2.112-11.413333c-4.693333-24.405333-8.746667-31.253333-19.434667-31.253334-13.269333 0-31.424 16.213333-43.392 53.610667l-1.6 5.226667c-6.186667 21.376-12.074667 70.144-17.557333 145.898666a5.333333 5.333333 0 1 1-10.645334-0.789333l1.941334-25.386667c4.992-62.122667 10.304-102.912 16.021333-122.688 13.12-45.312 36.117333-66.56 55.232-66.56z" fill="#000000" p-id="1482"></path><path d="M428.778667 433.386667c-6.4 2.858667-19.008-10.517333-41.877334-20.309334-22.869333-9.813333-46.954667 11.733333-46.954666-8.490666 0-20.202667 13.76-143.082667 32.725333-143.082667s6.741333 39.232 21.482667 74.24c14.741333 35.050667 32 47.509333 34.624 58.986667 2.602667 11.477333 6.4 35.797333 0 38.656z" fill="#FF848B" p-id="1483"></path><path d="M372.693333 256.170667c-20.352 0-38.08 101.354667-38.08 148.416 0 7.786667 3.242667 12.778667 9.6 14.037333 2.496 0.512 4.032 0.576 7.808 0l7.765334-1.386667c9.984-1.877333 15.957333-2.154667 22.208-0.277333 0.96 0.277333 1.877333 0.64 2.794666 1.024 3.733333 1.578667 7.338667 3.349333 11.008 5.333333l10.752 6.314667c4.629333 2.794667 8.661333 5.290667 8.277334 5.077333 7.168 4.202667 11.52 5.610667 16.128 3.541334 9.194667-4.117333 8.106667-22.4 3.029333-44.693334-1.386667-6.058667-22.336-34.453333-28.522667-46.293333a179.477333 179.477333 0 0 1-6.4-13.568 83.882667 83.882667 0 0 1-3.349333-9.642667c-2.346667-8.256-3.370667-14.464-4.416-26.688l-0.746667-9.130666c-1.792-23.936-4.714667-32.064-17.877333-32.064z m0 10.666666c3.733333 0 5.418667 3.285333 6.677334 15.765334l1.685333 19.968c1.002667 10.24 2.112 16.362667 4.394667 24.384 1.066667 3.776 2.325333 7.402667 3.776 10.88 2.133333 5.056 4.394667 9.813333 6.784 14.4 7.082667 13.525333 26.773333 40.234667 27.562666 43.690666 3.285333 14.442667 4.352 32 3.029334 32.597334l-0.618667-0.149334a22.72 22.72 0 0 1-2.709333-1.194666l-3.648-2.048c-2.773333-1.728-14.08-8.64-18.773334-11.2a143.36 143.36 0 0 0-11.861333-5.76 37.205333 37.205333 0 0 0-3.925333-1.429334c-7.274667-2.197333-13.866667-2.197333-23.104-0.725333l-10.389334 1.856c-3.029333 0.490667-4.138667 0.512-5.290666 0.298667-0.810667-0.170667-1.002667-0.469333-1.002667-3.584l0.149333-6.784c1.770667-41.493333 17.92-130.986667 27.242667-130.986667z" fill="#000000" p-id="1484"></path><path d="M311.594667 367.872c-30.293333-80.938667-58.88-121.429333-85.802667-121.429333-26.922667 0-36.586667 51.306667-28.970667 153.898666l62.805334-21.973333 51.968-10.496z" fill="#4C4C4C" p-id="1485"></path><path d="M225.792 241.109333c30.186667 0 59.733333 41.813333 90.794667 124.906667a5.333333 5.333333 0 1 1-9.984 3.733333c-29.482667-78.805333-57.152-117.973333-80.810667-117.973333-21.738667 0-30.997333 49.194667-23.68 148.16a5.333333 5.333333 0 1 1-10.624 0.789333l-0.981333-14.485333c-5.909333-96.576 4.672-145.130667 35.285333-145.130667z" fill="#000000" p-id="1486"></path><path d="M311.381333 367.210667a5.333333 5.333333 0 0 1 0.426667 10.666666c-54.272 2.112-95.616 14.421333-124.117333 36.8-28.714667 22.528-51.093333 53.653333-67.093334 93.482667a5.333333 5.333333 0 0 1-9.898666-3.968c16.682667-41.514667 40.149333-74.176 70.4-97.92 30.506667-23.893333 73.962667-36.864 130.282666-39.04z" fill="#000000" p-id="1487"></path><path d="M128.554667 518.656c-10.624-15.445333-28.8-16.682667-42.986667 0-14.208 16.661333-24.917333 55.402667-13.290667 70.826667 11.605333 15.466667 40.576 17.92 56.277334-14.869334 5.888-12.245333 10.645333-40.512 0-55.957333z" fill="#000000" p-id="1488"></path><path d="M79.936 578.410667a5.333333 5.333333 0 0 1 4.608 5.973333c-5.333333 42.24 1.493333 69.76 19.712 83.2 18.773333 13.802667 50.858667 17.792 96.256 11.52a5.333333 5.333333 0 0 1 1.450667 10.56c-47.872 6.613333-82.56 2.304-104.021334-13.504-21.994667-16.192-29.738667-47.424-23.978666-93.141333a5.333333 5.333333 0 0 1 4.736-4.629334h1.237333z" fill="#000000" p-id="1489"></path><path d="M116.181333 674.090667a5.333333 5.333333 0 0 1 4.778667 5.845333c-2.56 25.386667 4.458667 42.325333 21.034667 51.797333 17.386667 9.962667 47.274667 13.056 89.429333 8.917334a5.333333 5.333333 0 1 1 1.045333 10.624c-44.16 4.330667-76.032 1.024-95.786666-10.282667-20.544-11.754667-29.312-32.832-26.346667-62.144a5.333333 5.333333 0 0 1 5.845333-4.757333z" fill="#000000" p-id="1490"></path><path d="M365.312 615.914667a5.333333 5.333333 0 0 1 1.28 10.602666c-86.890667 10.666667-131.52 31.786667-134.954667 61.44-5.866667 50.304 22.549333 97.706667 55.893334 89.514667l8.234666-2.112c17.28-4.693333 21.824-7.850667 27.136-14.485333a13.504 13.504 0 0 1 5.013334-4.096c1.749333-0.853333 3.029333-1.130667 6.528-1.173334l7.168 0.085334c11.946667 0.256 19.029333-0.064 26.965333-1.856 11.882667-2.666667 20.992-8.277333 27.2-17.792a5.333333 5.333333 0 0 1 8.938667 5.824c-7.850667 12.053333-19.392 19.136-33.792 22.378666-7.722667 1.728-14.528 2.261333-24.362667 2.197334l-10.666667-0.170667a19.968 19.968 0 0 0-3.413333 0.128 2.389333 2.389333 0 0 0-0.768 0.576l-0.469333 0.576c-7.616 9.493333-14.72 13.781333-41.152 20.266667-42.666667 10.496-75.648-44.544-69.056-101.12 4.266667-36.586667 52.736-59.52 144.277333-70.784z" fill="#000000" p-id="1491"></path><path d="M783.146667 741.44c-5.866667 3.349333-27.136 11.264-50.944 17.770667-39.317333 10.773333-85.312 18.538667-137.173334 21.610666-39.786667 2.368-112.298667-3.157333-217.792-16.533333a5.333333 5.333333 0 1 1 1.344-10.581333l30.464 3.754666c85.184 10.176 145.706667 14.485333 181.333334 12.928l4.010666-0.213333c88.192-5.248 168.170667-27.114667 183.509334-38.016 2.944-2.090667 6.186667-2.048 10.837333-0.64l2.474667 0.810667c2.624 0.917333 13.525333 5.44 14.762666 5.930666 11.648 4.586667 20.906667 6.933333 30.144 6.933334 10.389333 0 19.818667-2.304 30.4-6.613334l11.050667-4.8c4.224-1.770667 6.912-2.602667 9.557333-2.602666 4.714667 0 7.338667 2.496 10.026667 7.68l3.093333 6.677333c2.752 5.973333 4.693333 8.128 7.125334 8.128 5.717333 0 18.858667-9.237333 25.813333-20.992 9.642667-16.384 8.576-36.117333-7.104-58.602667-24.704-35.456-52.48-59.754667-83.242667-73.045333a5.333333 5.333333 0 1 1 4.224-9.792c32.725333 14.122667 61.994667 39.744 87.765334 76.736 18.026667 25.856 19.328 50.090667 7.530666 70.122667-8.704 14.741333-25.066667 26.24-34.986666 26.24-7.253333 0-11.52-3.925333-15.509334-11.626667l-1.301333-2.709333-1.92-4.266667-1.493333-3.050667c-0.298667-0.597333-0.32-0.832-0.021334-0.832a8.917333 8.917333 0 0 0-2.453333 0.618667l-4.48 1.813333c-2.517333 1.109333-7.488 3.306667-9.642667 4.181334-11.754667 4.8-22.464 7.402667-34.432 7.402666-10.837333 0-21.269333-2.645333-34.048-7.68l-18.069333-7.274666-0.853333 0.533333z" fill="#000000" p-id="1492"></path><path d="M462.848 412.544c126.08-12.16 219.434667-4.266667 280.256 23.978667 61.397333 28.522667 101.184 82.986667 119.253333 162.965333a5.333333 5.333333 0 1 1-10.410666 2.346667c-17.386667-76.906667-55.125333-128.597333-113.322667-155.626667-58.773333-27.285333-150.4-35.050667-274.752-23.04a5.333333 5.333333 0 0 1-1.024-10.624z" fill="#000000" p-id="1493"></path><path d="M833.408 445.525333c15.701333-6.08 32.981333 23.765333 34.048 48.746667 0.64 14.293333-6.421333 29.141333-20.778667 44.608l-3.733333 3.882667-7.552-7.552c14.933333-14.933333 21.930667-28.458667 21.418667-40.469334-0.810667-18.688-13.973333-41.429333-19.541334-39.274666-6.016 2.325333-16.064 10.304-29.653333 23.765333l-3.477333 3.477333-7.594667-7.488c16.426667-16.64 28.501333-26.453333 36.864-29.696z" fill="#000000" p-id="1494"></path></svg>